<?xml version="1.0" encoding="UTF-8"?>
<svg id="Layer_2" xmlns="http://www.w3.org/2000/svg" viewBox="0 0 154.39 154.39">
  <defs>
    <style>
      .cls-1 {
        fill: #1b7e87;
      }
    </style>
  </defs>
  <g id="Layer_1-2" data-name="Layer_1">
    <path class="cls-1" d="M98.69,0h-42.99C24.94,0,0,24.94,0,55.7v42.99c0,30.76,24.94,55.7,55.7,55.7h42.99c30.76,0,55.7-24.94,55.7-55.7v-42.99c0-30.76-24.94-55.7-55.7-55.7ZM137.32,99.29c0,21-17.03,38.02-38.02,38.02h-44.2c-21,0-38.02-17.02-38.02-38.02v-44.2c0-21,17.02-38.02,38.02-38.02h44.2c20.99,0,38.02,17.02,38.02,38.02v44.2Z"/>
    <path class="cls-1" d="M86.55,68.36h13.08c2.32,0,3.57,2.71,2.08,4.48l-33.94,40.11c-1.26,1.49-3.67.19-3.11-1.69l8.27-27.58c.52-1.74-.78-3.5-2.6-3.5h-15.58c-2.02,0-3.34-2.13-2.43-3.94l16.97-33.95c.46-.92,1.4-1.5,2.43-1.5h21.2c2.09,0,3.4,2.26,2.36,4.07l-11.1,19.43c-1.04,1.81.27,4.07,2.36,4.07Z"/>
  </g>
</svg>