<?xml version="1.0" encoding="UTF-8"?>
<svg id="Layer_2" xmlns="http://www.w3.org/2000/svg" viewBox="0 0 541.43 154.39">
  <g id="Layer_1-2" data-name="Layer_1">
    <path d="M98.69,0h-42.99C24.94,0,0,24.94,0,55.7v42.99c0,30.76,24.94,55.7,55.7,55.7h42.99c30.76,0,55.7-24.94,55.7-55.7v-42.99c0-30.76-24.94-55.7-55.7-55.7ZM137.32,99.29c0,21-17.03,38.02-38.02,38.02h-44.2c-21,0-38.02-17.02-38.02-38.02v-44.2c0-21,17.02-38.02,38.02-38.02h44.2c20.99,0,38.02,17.02,38.02,38.02v44.2Z"/>
    <path d="M86.55,68.36h13.08c2.32,0,3.57,2.71,2.08,4.48l-33.94,40.11c-1.26,1.49-3.67.19-3.11-1.69l8.27-27.58c.52-1.74-.78-3.5-2.6-3.5h-15.58c-2.02,0-3.34-2.13-2.43-3.94l16.97-33.95c.46-.92,1.4-1.5,2.43-1.5h21.2c2.09,0,3.4,2.26,2.36,4.07l-11.1,19.43c-1.04,1.81.27,4.07,2.36,4.07Z"/>
    <g>
      <path d="M205.57,93.33l-4.26,4.4c-.43.45-.67,1.05-.67,1.67v17.39c0,1.33-1.07,2.4-2.4,2.4h-11.4c-1.33,0-2.4-1.07-2.4-2.4V35.79c0-1.33,1.07-2.4,2.4-2.4h11.4c1.33,0,2.4,1.07,2.4,2.4v39.05c0,2.17,2.66,3.23,4.15,1.64l16.98-18.1c.45-.48,1.09-.76,1.75-.76h12.85c2.12,0,3.2,2.55,1.72,4.07l-17.39,17.94c-.79.81-.9,2.06-.27,3l21.88,32.82c1.06,1.59-.08,3.73-2,3.73h-13.97c-.83,0-1.61-.43-2.04-1.14l-14.96-24.3c-.82-1.33-2.68-1.54-3.77-.41Z"/>
      <path d="M252.35,33.39h11.53c1.32,0,2.39,1.07,2.39,2.39v9.85c0,1.32-1.07,2.39-2.39,2.39h-11.53c-1.32,0-2.39-1.07-2.39-2.39v-9.85c0-1.32,1.07-2.39,2.39-2.39ZM252.35,57.63h11.53c1.32,0,2.39,1.07,2.39,2.39v56.77c0,1.32-1.07,2.39-2.39,2.39h-11.53c-1.32,0-2.39-1.07-2.39-2.39v-56.77c0-1.32,1.07-2.39,2.39-2.39Z"/>
      <path d="M292.8,66.03h.36c4.2-6.6,9.84-10.08,18.24-10.08,12.72,0,21.24,9.6,21.24,23.04v37.83c0,1.31-1.06,2.37-2.37,2.37h-11.57c-1.31,0-2.37-1.06-2.37-2.37v-35.43c0-6.6-3.84-11.28-10.68-11.28-7.2,0-12.48,5.76-12.48,14.16v32.55c0,1.31-1.06,2.37-2.37,2.37h-11.57c-1.31,0-2.37-1.06-2.37-2.37v-56.81c0-1.31,1.06-2.37,2.37-2.37h11.21c1.31,0,2.37,1.06,2.37,2.37v6.03Z"/>
      <path d="M339.72,88.35c0-18.24,12.36-32.4,30.36-32.4,19.02,0,29.51,13.95,30.31,34.52.05,1.4-1.06,2.56-2.46,2.56h-39.18c-1.58,0-2.77,1.48-2.4,3.02,1.87,7.69,6.96,12.33,15.17,12.33,5.72,0,9.3-2.33,11.27-6.2.42-.83,1.26-1.36,2.19-1.36h11.25c1.68,0,2.9,1.67,2.33,3.25-3.39,9.44-12.68,16.91-26.92,16.91-20.4,0-31.92-14.28-31.92-32.64ZM359.16,81.75h21.4c1.6,0,2.76-1.51,2.39-3.07-1.48-6.11-6.2-10.13-12.62-10.13-7.45,0-11.6,3.83-13.52,10.04-.49,1.57.72,3.16,2.36,3.16Z"/>
      <path d="M405.6,57.63h3.71c1.33,0,2.41-1.08,2.41-2.41v-14.39c0-1.33,1.08-2.41,2.41-2.41h11.15c1.33,0,2.41,1.08,2.41,2.41v14.39c0,1.33,1.08,2.41,2.41,2.41h5.75c1.33,0,2.41,1.08,2.41,2.41v5.99c0,1.33-1.08,2.41-2.41,2.41h-5.75c-1.33,0-2.41,1.08-2.41,2.41v30.23c0,4.56,2.52,6.12,6.12,6.12.74,0,1.57-.02,2.33-.04,1.35-.04,2.47,1.05,2.47,2.41v7.21c0,1.3-1.02,2.36-2.31,2.41-1.74.06-4.42.13-7.89.13-7.92,0-16.68-3.12-16.68-14.76v-33.71c0-1.33-1.08-2.41-2.41-2.41h-3.71c-1.33,0-2.41-1.08-2.41-2.41v-5.99c0-1.33,1.08-2.41,2.41-2.41Z"/>
      <path d="M462.35,67.47h.36c3.72-6.96,7.92-10.56,15.12-10.56.62,0,1.16.01,1.64.05,1.24.09,2.2,1.11,2.2,2.35v12.36h-.36c-10.68-1.08-18.36,4.56-18.36,17.52v27.65c0,1.3-1.05,2.35-2.35,2.35h-11.62c-1.3,0-2.35-1.05-2.35-2.35v-56.86c0-1.3,1.05-2.35,2.35-2.35h11.02c1.3,0,2.35,1.05,2.35,2.35v7.49Z"/>
      <path d="M523.79,112.35h-.24c-3.12,4.68-7.56,8.28-18.12,8.28-12.6,0-21.48-6.6-21.48-18.84,0-13.56,11.04-17.88,24.72-19.8,10.2-1.44,14.88-2.28,14.88-6.96,0-4.44-3.48-7.32-10.32-7.32s-10.54,2.19-11.61,6.83c-.25,1.07-1.22,1.81-2.32,1.81h-9.79c-1.49,0-2.63-1.35-2.37-2.82,1.67-9.58,9.8-17.46,26.21-17.46,18.48,0,25.92,8.28,25.92,22.68v31.32c0,4.68.72,7.44,2.16,8.52v.6h-14.27c-1,0-1.91-.61-2.25-1.55-.52-1.43-.88-3.39-1.13-5.29ZM523.91,97.47v-5.56c0-1.67-1.65-2.8-3.22-2.25-2.49.87-5.42,1.52-8.18,2.17-7.54,1.7-11.7,3.4-12.55,7.76-.94,4.81,2.86,9.23,7.74,9.57,10.43.74,16.21-5.35,16.21-11.7Z"/>
    </g>
  </g>
</svg>